<?xml version="1.0" encoding="utf-8"?>
<!-- Generator: Adobe Illustrator 16.0.0, SVG Export Plug-In . SVG Version: 6.00 Build 0)  -->
<svg version="1.2" baseProfile="tiny" id="Layer_1" xmlns="http://www.w3.org/2000/svg" xmlns:xlink="http://www.w3.org/1999/xlink"
	 x="0px" y="0px" width="1644.09px" height="566.93px" viewBox="0 0 1644.09 566.93" xml:space="preserve">
<g>
	<path fill="#52C2EF" d="M230.25,158.488c-12.598-22.2-35.879-38.23-70.168-38.23H40.615c-9.164,0-16.6,7.443-16.6,16.662v204.018
		c0,6.107,4.957,11,11.001,11h14.376c14.761,0,26.719-11.889,26.719-26.65v-32c0-3.814,3.116-6.994,6.999-6.994h76.658
		c27.669,0,48.213-10.432,61.767-26.153c-2.927-12.142-4.455-24.738-4.455-37.781C217.08,199.71,221.724,178.081,230.25,158.488
		 M154.04,238.644H69.943c-1.655,0-2.357-2.035-1.085-2.994c3.498-2.731,7.253-7.629,7.253-16.284v-44.144
		c0-3.818,3.116-6.94,6.999-6.94h70.93c20.864,0.324,35.05,11.643,35.05,34.738C189.09,226.369,174.904,238.644,154.04,238.644
		 M239.603,184.061c-3.818,12.974-5.854,26.653-5.854,40.841c0,4.771,0.255,9.542,0.698,14.185
		c4.708-11.259,7.064-23.603,7.064-36.067C241.511,196.658,240.873,190.236,239.603,184.061"/>
	<path fill="#52C2EF" d="M588.21,168.281h85.304c11.009,0,20.997-4.446,28.186-11.702c7.188-7.187,11.641-17.177,11.641-28.181
		c0-4.451-3.624-8.142-8.079-8.142H565.123c-20.361,0-37.345,14.502-41.227,33.711c9.862,20.804,15.332,44.02,15.332,68.39
		c0,25.188-5.793,49.041-16.161,70.293v34.346c0,4.396,3.565,7.955,7.958,7.955h17.873c14.31,0,25.956-11.641,25.956-25.955v-34.985
		c0-4.9,3.944-8.838,8.847-8.838h71.18c11.005,0,20.989-4.455,28.183-11.709c7.25-7.188,11.704-17.178,11.704-28.184
		c0-4.261-3.501-7.759-7.822-7.759H583.699c-4.902,0-8.847-3.944-8.847-8.843v-27.037
		C574.852,174.264,580.833,168.281,588.21,168.281"/>
	<path fill="#52C2EF" d="M900.24,120.257h-4.007c-7.696,0-13.928,6.234-13.928,13.928v90.589c0,41.348-20.171,65.971-52.357,65.971
		c-32.826,0-50.507-24.624-50.507-65.971v-69.849c0-19.147-15.521-34.669-34.678-34.669h-4.323c-7.058,0-12.786,5.725-12.786,12.785
		v91.733c0,70.999,41.35,113.938,102.293,113.938c59.918,0,104.772-42.939,104.772-113.938v-70.042
		C934.721,135.713,919.263,120.257,900.24,120.257"/>
	<path fill="#52C2EF" d="M1049.735,120.257l-64.379,0.254c-16.928,0.065-30.596,13.803-30.596,30.661v170.935
		c0,7.064,5.721,12.846,12.785,12.846h82.189c66.921,0,113.295-45.166,113.295-107.631
		C1163.03,165.425,1120.477,119.999,1049.735,120.257 M1049.735,286.922h-31.166c-6.686,0-12.091-5.338-12.091-12.02v-94.28
		c0-6.801,5.536-12.341,12.406-12.341h30.851c36.709,0,61.013,20.547,60.951,59.225
		C1110.617,260.594,1082.817,286.922,1049.735,286.922"/>
	<path fill="#52C2EF" d="M1621.382,337.75l-85.949-123.598c-3.049-4.324-2.732-10.18,0.701-14.246l56.683-66.355
		c4.446-5.214,0.696-13.293-6.168-13.293h-30.666c-10.691,0-20.929,4.706-27.925,12.785l-56.619,65.016
		c-4.963,5.724-14.373,2.223-14.373-5.411v-39.185c0-18.319-14.886-33.205-33.219-33.205h-3.81c-8.144,0-14.76,6.617-14.76,14.758
		v160.248c0,16.598,0.193,23.855,11.001,25.83c7.382,1.393,15.525-6.367,16.419-7.26l0.062-0.07l27.809-30.72
		c0.44-0.63,0.944-1.335,1.521-1.905l21.056-23.094c5.533-5.979,15.142-5.277,19.656,1.528l53.055,79.964
		c5.154,7.699,13.74,12.34,22.904,12.34H1614C1621.313,351.877,1625.574,343.668,1621.382,337.75"/>
	<path fill="#FFFFFF" d="M492.599,136.919c-2.673,2.994-6.298,5.093-9.224,6.43c-1.718,0.827-3.18,1.335-4.01,1.649
		c2.925-1.585,6.109-9.347,7.952-14.438c0.065,0.063,0.125,0.063,0.125,0.128c0.384-1.271,0.832-2.544,1.148-3.879
		c0.193-0.511,0.255-0.826,0.255-0.826c1.531-5.219,2.99-10.816,4.199-16.413c-8.524-8.845-18.127-16.668-28.566-23.285
		c-7.186,3.689-13.74,7.38-19.209,10.558l-0.065,0.072l-8.396,5.088l3.436-7.638c-5.216-2.544-10.682-4.833-16.285-6.679
		c2.165-5.279,5.215-11.452,5.215-11.452c-4.386,0.892-13.1,4.072-18.7,6.173c-25.446-19.212-68.131-16.672-73.029-16.351
		c-0.066,0.063-0.128,0.063-0.193,0.063s-0.127,0-0.188,0.066c3.5,2.858,7.63,10.369,10.811,17.173
		c-10.05,2.101-19.718,5.281-28.88,9.416l2.417,6.554c-0.065-0.065-0.19-0.127-0.252-0.193l-2.547-2.221l-2.988-2.55l-3.245-2.799
		c-3.754-3.116-8.019-6.614-12.659-10.309c-16.984,9.482-31.997,21.951-44.337,36.708v0.066c0.633,5.088,1.269,9.797,1.842,13.681
		c0,0,0,0.25,0.126,0.764c0.32,2.22,0.638,4.131,0.892,5.721c0.255,1.079,0.383,1.972,0.51,2.672
		c0.062,0.447,0.191,0.952,0.254,1.401c0.059,0.508,0.124,0.764,0.124,0.764l0.065-0.065c1.209,5.088,2.99,10.75,5.598,13.935
		c0,0-5.023-2.613-9.542-7.889c-6.74,10.813-12.022,22.581-15.646,35.049c-3.818,12.974-5.854,26.653-5.854,40.841
		c0,4.771,0.255,9.542,0.698,14.185c7.064,73.156,68.324,130.601,143.709,130.601c79.394,0,144.403-65.012,144.403-144.786
		C522.559,191.949,511.361,161.349,492.599,136.919"/>
	<path fill="#52C2EF" d="M492.599,136.919c-2.673,2.994-6.298,5.093-9.224,6.43c-1.718,0.827-3.18,1.335-4.01,1.649
		c2.925-1.585,6.109-9.347,7.952-14.438c-11.767-13.738-26.017-25.19-42.114-33.646l-8.396,5.088l3.436-7.638
		c-5.216-2.544-10.682-4.833-16.285-6.679c-3.561-1.204-7.122-2.292-10.813-3.246c-0.065,0-0.065,0-0.127-0.066
		c-1.593-0.312-3.246-0.695-4.901-1.016c-9.666-2.161-19.718-3.243-29.958-3.243c-10.369,0-20.546,1.082-30.284,3.243
		c-10.05,2.101-19.718,5.281-28.88,9.416l2.417,6.554c-0.065-0.065-0.19-0.127-0.252-0.193l-2.547-2.221l-2.988-2.55
		c-22.775,11.006-42.242,27.862-56.428,48.537v0.065c1.209,5.088,2.99,10.75,5.598,13.935c0,0-5.023-2.613-9.542-7.889
		c-6.74,10.813-12.022,22.581-15.646,35.049c-3.818,12.974-5.854,26.653-5.854,40.841c0,4.771,0.255,9.542,0.698,14.185
		c7.064,73.156,68.324,130.601,143.709,130.601c79.394,0,144.403-65.012,144.403-144.786
		C522.559,191.949,511.361,161.349,492.599,136.919"/>
	<path fill="#52C2EF" d="M1351.273,120.257h-4.009c-7.702,0-13.939,6.234-13.939,13.928v90.589
		c0,41.348-20.159,65.971-52.351,65.971c-32.822,0-50.509-24.624-50.509-65.971v-69.849c0-19.147-15.523-34.669-34.672-34.669
		h-4.322c-7.058,0-12.786,5.725-12.786,12.785v91.733c0,70.999,41.35,113.938,102.289,113.938
		c59.929,0,104.776-42.939,104.776-113.938v-70.042C1385.751,135.713,1370.289,120.257,1351.273,120.257"/>
	<path fill="#626C6F" d="M166.061,439.541h-27.8v68.439h27.8c21.885,0,36.648-14.113,36.648-34.217S187.945,439.541,166.061,439.541
		 M165.686,501.688h-20.235v-55.842h20.235c18.19,0,29.893,11.51,29.893,27.918C195.579,490.17,183.875,501.688,165.686,501.688"/>
	<path fill="#626C6F" d="M387.251,507.98h7.19v-68.439h-7.19V507.98z M390.813,422.361c-2.606,0-4.646,2.039-4.646,4.709
		c0,2.609,2.04,4.713,4.646,4.713c2.671,0,4.711-2.104,4.711-4.713C395.524,424.4,393.484,422.361,390.813,422.361"/>
	<path fill="#626C6F" d="M580.135,439.541v6.305h24.996v41.4c0,10.057-4.266,15.021-12.658,15.021c-6.11,0-11.066-2.926-14.757-8.4
		l-4.328,4.895c4.199,6.238,11.264,9.797,18.958,9.797c13.103,0,19.907-7.127,19.907-21.625v-47.393H580.135z"/>
	<path fill="#626C6F" d="M802.274,507.98h7.188v-68.439h-7.188V507.98z M805.899,422.361c-2.672,0-4.708,2.039-4.708,4.709
		c0,2.609,2.036,4.713,4.708,4.713c2.613,0,4.64-2.104,4.64-4.713C810.539,424.4,808.513,422.361,805.899,422.361"/>
	<polygon fill="#626C6F" points="989.295,439.541 989.295,445.846 1013.35,445.846 1013.35,507.98 1020.599,507.98 
		1020.599,445.846 1044.586,445.846 1044.586,439.541 	"/>
	<path fill="#626C6F" d="M1248.47,439.541h-7.124l-31.305,68.439h7.572l8.206-18.314h38.107l8.207,18.314h7.571L1248.47,439.541z
		 M1228.428,483.814l16.413-36.717l16.413,36.717H1228.428z"/>
	<polygon fill="#626C6F" points="1466.6,501.688 1466.6,439.541 1459.349,439.541 1459.349,507.98 1504.896,507.98 
		1504.896,501.688 	"/>
	<path fill="#52C2EF" d="M51.937,458.623c-8.527,0-15.33,6.996-15.33,15.459c0,8.461,6.803,15.395,15.33,15.395
		c8.459,0,15.397-6.934,15.397-15.395C67.334,465.619,60.396,458.623,51.937,458.623"/>
	<path fill="#52C2EF" d="M36.543,462.824c-0.701-0.129-1.396-0.193-2.101-0.193c-6.361,0-11.387,5.152-11.387,11.451
		c0,6.234,5.026,11.387,11.387,11.387c0.705,0,1.4-0.064,2.039-0.195c-2.992-2.793-4.836-6.801-4.836-11.191
		C31.645,469.627,33.554,465.619,36.543,462.824"/>
	<path fill="#52C2EF" d="M1594.089,458.623c-8.468,0-15.392,6.996-15.392,15.459c0,8.461,6.924,15.395,15.392,15.395
		c8.524,0,15.396-6.934,15.396-15.395C1609.485,465.619,1602.613,458.623,1594.089,458.623"/>
	<path fill="#52C2EF" d="M1611.654,462.631c-0.772,0-1.474,0.064-2.169,0.193c2.986,2.795,4.895,6.803,4.895,11.258
		c0,4.391-1.846,8.398-4.833,11.191c0.634,0.131,1.335,0.195,2.107,0.195c6.299,0,11.381-5.152,11.381-11.387
		C1623.035,467.783,1617.953,462.631,1611.654,462.631"/>
	<path fill="#52C2EF" d="M328.279,105.623l-69.085,37.343l-0.065,0.065c0,0-0.065-0.255-0.124-0.764
		c-0.063-0.449-0.192-0.954-0.254-1.401c-0.127-0.7-0.255-1.593-0.51-2.672c-0.253-1.59-0.571-3.501-0.892-5.721
		c-0.126-0.514-0.126-0.764-0.126-0.764c-0.573-3.884-1.209-8.593-1.842-13.681v-0.066c-3.443-28.685-5.222-70.161,15.456-57.125
		c10.434,6.555,20.289,13.738,28.882,20.417c4.64,3.695,8.905,7.193,12.659,10.309l3.245,2.799h0.062
		c1.018,0.892,1.975,1.714,2.926,2.55l2.547,2.221c0.062,0.065,0.187,0.127,0.252,0.193v0.062
		C325.803,103.207,328.279,105.623,328.279,105.623"/>
	<path fill="#52C2EF" d="M493.043,109.57c-1.209,5.596-2.668,11.194-4.199,16.413c0,0-0.062,0.315-0.255,0.826
		c-0.316,1.335-0.765,2.608-1.148,3.879c0-0.065-0.059-0.065-0.125-0.128c-1.843,5.091-5.027,12.854-7.952,14.438
		c0.83-0.314,2.292-0.822,4.01-1.649c-0.953,2.797-1.528,4.453-1.528,4.453l-3.312-2.547l-49.364-38.358
		c0,0,2.798-1.907,7.572-4.839l0.062-0.056l8.396-5.088l0.065-0.072c5.469-3.177,12.023-6.868,19.209-10.558
		c6.046-2.989,12.471-6.042,19.088-8.839C498.128,71.338,497.306,89.974,493.043,109.57"/>
	<path fill="#FFFFFF" d="M391.704,238.261c-5.469,0.573-11.066,0.825-16.73,0.699c-5.282-0.126-10.433-0.572-15.462-1.335
		c-51.206-7.698-86.829-43.195-87.786-0.634c-1.016,46.949,41.734,94.911,101.15,96.249c58.778,1.268,106.424-40.275,107.444-87.215
		C481.274,203.782,442.533,233.109,391.704,238.261"/>
	<path fill="#FFFFFF" d="M259.193,142.901v0.065l-0.065,0.065c0,0-0.065-0.255-0.124-0.764
		C259.063,142.458,259.128,142.711,259.193,142.901"/>
	<path fill="#FFFFFF" d="M488.589,126.809c-0.316,1.335-0.765,2.608-1.148,3.879c0-0.065-0.059-0.065-0.125-0.128
		C487.89,128.908,488.335,127.634,488.589,126.809"/>
	<path fill="#FFFFFF" d="M315.684,94.364c1.018,0.892,1.975,1.714,2.926,2.55l-2.988-2.55H315.684z"/>
	<path fill="#FFFFFF" d="M321.409,99.328v0.062l-0.252-0.255C321.219,99.2,321.343,99.262,321.409,99.328"/>
	<path fill="#52C2EF" d="M418.169,93.41c-2.544,13.17-61.515,11.261-64.632,2.861c0,0-2.42-6.045-5.665-12.913
		c-3.181-6.805-7.312-14.315-10.811-17.173l-0.065-0.066h0.253c0.065,0,0.127,0,0.193-0.063c4.898-0.321,47.583-2.861,73.029,16.351
		c0.889,0.571,1.714,1.272,2.544,1.968c0.062,0.066,0.062,0.066,0.127,0.066C417.216,88.003,418.678,90.925,418.169,93.41"/>
	<path fill="#52C2EF" d="M429.171,76.233c0,0-3.051,6.173-5.215,11.452c-0.83,2.163-1.59,4.135-1.907,5.468
		c-0.316,1.403-1.844,1.21-3.88,0.256c-4.896-2.289-12.723-9.036-12.723-9.036s1.016-0.378,2.668-1.016
		c0.701-0.319,1.465-0.629,2.357-0.952C416.072,80.305,424.786,77.125,429.171,76.233"/>
	<path d="M430.7,250.41c-3.116-1.527-5.216-0.187-6.934,2.735c-5.793,10.054-13.676,13.74-25.131,12.087
		c-9.216-1.398-17.239-8.777-18.632-17.428c5.088-1.974,8.903-5.153,11.701-9.543c0.765-1.209,1.467-2.482,2.101-3.879
		c1.462-3.182,0.827-5.598-1.783-7.891c-8.458-7.442-22.773-8.461-32.187-2.224c-2.547,1.711-3.566,3.817-2.802,6.868
		c0.577,2.354,1.399,4.514,2.478,6.489c2.358,4.326,5.922,7.761,11.332,10.05c-3.562,7.381-8.911,11.959-16.673,13.234
		c-12.081,2.095-21.75-3.31-27.419-15.143c-1.332-2.924-3.239-4.896-6.612-3.5c-3.239,1.341-3.498,4.07-2.354,7.128
		c2.419,6.36,6.361,11.644,12.085,15.33c2.672,1.653,2.993,3.313,2.42,6.171c-3.562,16.795,3.625,30.983,18.892,37.467
		c10.625,4.582,21.949,5.73,33.336,4.264c20.8-2.672,31.811-16.029,30.662-36.643c-0.127-2.094,0.384-3.117,2.289-4.008
		c6.681-2.988,11.514-7.948,14.888-14.307C433.883,254.734,434.008,252.066,430.7,250.41 M383.688,289.088
		c4.967-3.686,9.16-0.949,13.614,0.699C393.105,292.398,387.061,292.146,383.688,289.088 M386.74,230.372
		c-3.624,1.212-6.358,0.065-8.584-2.865C381.526,224.713,385.15,225.916,386.74,230.372"/>
	<path fill="#E5282A" d="M379.73,286.602c-1.183,0.711-2.313,1.254-3.281,1.662c-2.006,0.83-4.267,0.66-6.129-0.471
		c-0.885-0.547-1.922-1.252-2.99-2.143c-3.475-2.908-15.59-5.932-22.154-0.098c-1.844,1.631-2.01,4.486-0.624,6.523
		c2.73,4.014,9.769,10.07,27.654,11.432c18.059,1.379,25.912-3.635,29.166-7.193c1.604-1.766,1.865-4.486,0.37-6.332
		C396.184,283.1,383.638,284.242,379.73,286.602"/>
	<path fill="#FFFFFF" d="M387.697,230.009c-0.435,1.625-2.932,2.365-5.572,1.645c-2.634-0.717-4.411-2.605-3.973-4.229
		c0.434-1.622,2.929-2.354,5.563-1.646C386.356,226.494,388.133,228.391,387.697,230.009"/>
	<path fill="#FFFFFF" d="M430.386,143.221c-18.83-1.402-34.992,12.661-36.453,31.676c-1.148,15.591,8.142,29.203,22.008,34.356
		c0-0.065,0.063,0,0.063,0c2.991,1.08,6.174,1.783,9.541,2.035c13.17,0.957,25.13-5.599,31.55-16.156
		c2.739-4.521,4.457-9.737,4.902-15.396C463.398,161.032,449.212,144.619,430.386,143.221 M407.674,171.15
		c-0.383-9.037,7.951-18.066,16.98-18.39c8.338-0.378,14.251,5.793,13.68,14.255c-0.633,8.522-7.696,15.907-16.096,16.857
		C414.287,184.76,408.052,179.29,407.674,171.15 M441.133,200.027c-0.257,0.32-0.636,0.575-0.957,0.761
		c-1.142,0.765-2.475,1.219-3.751,1.087c-1.144-0.127-2.163-0.574-2.865-1.339c-1.077-1.019-1.59-2.478-1.459-4.134
		c0.317-3.37,3.625-6.295,6.875-6.044c2.794,0.254,4.577,2.546,4.319,5.473c-0.064,0.571-0.188,1.142-0.443,1.652
		C442.533,198.499,441.897,199.33,441.133,200.027"/>
	<path d="M438.306,167.046c-0.585,8.501-7.641,15.898-16.058,16.841c-7.961,0.889-14.221-4.601-14.556-12.761
		c-0.377-9.02,7.94-18.025,16.979-18.382C433.001,152.397,438.885,158.57,438.306,167.046"/>
	<path fill="#FFFFFF" d="M436.412,201.888c-2.721-0.249-4.598-2.625-4.325-5.479c0.324-3.408,3.647-6.309,6.896-6.019
		c2.787,0.253,4.595,2.515,4.334,5.441C443.02,199.177,439.596,202.179,436.412,201.888"/>
	<path fill="#FFFFFF" d="M335.087,136.671c-18.832-1.278-35.238,12.912-36.451,31.61c-0.571,8.145,1.784,15.78,6.107,21.955
		c5.663,8.201,14.823,13.736,25.57,14.5c6.682,0.443,13.043-1.02,18.513-3.948c9.99-5.211,17.048-15.264,17.812-27.35
		C367.977,154.098,354.107,137.94,335.087,136.671 M348.321,189.281c-0.259,3.304-3.691,6.295-6.941,6.043
		c-2.794-0.257-4.574-2.486-4.258-5.476c0.321-3.43,3.625-6.295,6.872-6.042C346.792,184.061,348.576,186.288,348.321,189.281
		 M331.334,146.212c5.727,0.32,10.111,3.941,11.581,9.478c3.051,11.324-8.463,23.665-19.981,21.438
		c-5.787-1.142-9.794-5.792-10.304-11.961C311.869,155.245,321.473,145.51,331.334,146.212"/>
	<path d="M331.358,146.188c5.68,0.378,10.084,3.979,11.563,9.482c3.039,11.356-8.435,23.676-19.994,21.452
		c-5.76-1.103-9.782-5.796-10.273-11.978C311.865,155.276,321.471,145.539,331.358,146.188"/>
	<path fill="#FFFFFF" d="M344.015,183.813c2.79,0.246,4.569,2.498,4.324,5.448c-0.276,3.331-3.709,6.325-6.932,6.045
		c-2.813-0.232-4.573-2.473-4.29-5.461C337.449,186.391,340.729,183.533,344.015,183.813"/>
	<path fill="#52C2EF" d="M405.455,216.444c0,0,30.04-24.741,62.555-21.117c32.514,3.622-44.998,27.009-44.998,27.009
		L405.455,216.444z"/>
	<path fill="#52C2EF" d="M295.901,191.354c0,0,33.31-7.556,58.317,13.448c12.68,10.654-41.831,6.594-41.831,6.594L295.901,191.354z"
		/>
	<path fill="#FFFFFF" d="M432.101,185.63c-2.725-0.245-4.598-2.623-4.325-5.476c0.321-3.411,3.644-6.312,6.89-6.021
		c2.79,0.249,4.598,2.512,4.337,5.44C438.704,182.924,435.28,185.922,432.101,185.63"/>
	<path fill="#FFFFFF" d="M336.996,179.858c-2.728-0.246-4.601-2.618-4.328-5.47c0.319-3.415,3.646-6.312,6.896-6.019
		c2.787,0.246,4.595,2.51,4.333,5.435C343.599,177.151,340.172,180.154,336.996,179.858"/>
</g>
</svg>
